<svg xmlns="http://www.w3.org/2000/svg" xmlns:xlink="http://www.w3.org/1999/xlink" viewBox="0 0 512 512"><defs><style>.cls-1{fill:url(#radial-gradient);}.cls-2{fill:url(#linear-gradient);}.cls-3{fill:#fff;}.cls-4{fill:none;}</style><radialGradient id="radial-gradient" cx="104.95712" cy="66.55258" r="564.64587" gradientTransform="matrix(1, 0, 0, -1, 0.00018, 514)" gradientUnits="userSpaceOnUse"><stop offset="0" stop-color="#fae100"/><stop offset="0.0544" stop-color="#fadc04"/><stop offset="0.1167" stop-color="#fbce0e"/><stop offset="0.1829" stop-color="#fcb720"/><stop offset="0.2514" stop-color="#fe9838"/><stop offset="0.3054" stop-color="#ff7950"/><stop offset="0.4922" stop-color="#ff1c74"/><stop offset="1" stop-color="#6c1cd1"/></radialGradient><linearGradient id="linear-gradient" x1="256.00195" y1="62.03391" x2="256.00195" y2="-17.77399" gradientTransform="matrix(1, 0, 0, -1, 0.00018, 514)" gradientUnits="userSpaceOnUse"><stop offset="0" stop-color="#fae100" stop-opacity="0"/><stop offset="0.3068" stop-color="#fca800" stop-opacity="0.30588"/><stop offset="0.6275" stop-color="#fe7300" stop-opacity="0.62745"/><stop offset="0.8685" stop-color="#ff5200" stop-opacity="0.86667"/><stop offset="1" stop-color="#ff4500"/></linearGradient></defs><title>instagram</title><g id="Layer_1" data-name="Layer 1"><path class="cls-1" d="M503.23456,91.57813a93.22049,93.22049,0,0,0-82.8125-82.8125,1546.42281,1546.42281,0,0,0-328.83985,0,93.228,93.228,0,0,0-82.8164,82.8125,1546.424,1546.424,0,0,0,0,328.83984,93.228,93.228,0,0,0,82.8125,82.81641,1546.4607,1546.4607,0,0,0,328.84375,0,93.22441,93.22441,0,0,0,82.8125-82.81641A1546.424,1546.424,0,0,0,503.23456,91.57813Z" transform="translate(-0.00018)"/><path class="cls-2" d="M7.67206,409.80469q.52734,5.30859,1.09375,10.61719a93.228,93.228,0,0,0,82.8164,82.8125,1546.42412,1546.42412,0,0,0,328.83985,0,93.22413,93.22413,0,0,0,82.8125-82.8125q.56835-5.3086,1.09765-10.61719Z" transform="translate(-0.00018)"/><path class="cls-3" d="M61.27565,180.853c1.2905-9.11391,2.27375-18.27981,3.91406-27.32754,9.29826-51.24681,45.579-86.11411,97.4545-87.901,62.45956-2.14612,125.1082-2.25957,187.55831-.00945,56.46083,2.03266,97.3505,43.83939,99.11372,100.31914q2.815,89.95964,0,180.06581c-1.76322,56.47974-42.63871,98.28174-99.109,100.31913-62.45011,2.25485-125.11294,2.31157-187.55831-.03308C106.17865,444.16356,67.142,402.26229,63.365,345.69746c-.32617-4.89258-1.3756-9.74261-2.08939-14.61156ZM256.05228,412.84633c28.58023,0,57.18881.85561,85.73122-.19854,44.75174-1.65922,72.27781-28.3675,73.3225-73.07669q1.94286-83.56383,0-167.208c-1.04469-44.69973-28.58967-72.032-73.3225-72.98215q-85.16633-1.801-170.3941,0c-44.39247.93125-71.99891,27.71043-73.20433,71.91855q-2.29738,84.62034,0,169.34c1.20542,44.20339,28.81186,70.36332,73.209,72.00836C199.57727,413.69722,227.83132,412.84633,256.05228,412.84633Z" transform="translate(-0.00018)"/><path class="cls-3" d="M256.00029,156.76355a99.239,99.239,0,1,0,99.24135,99.23663A99.24136,99.24136,0,0,0,256.00029,156.76355Zm0,164.31029A65.07366,65.07366,0,1,1,321.074,256.00018,65.07216,65.07216,0,0,1,256.00029,321.07384Z" transform="translate(-0.00018)"/><path class="cls-3" d="M384.64438,152.235a23.60965,23.60965,0,1,1-23.60728-23.612A23.60795,23.60795,0,0,1,384.64438,152.235Z" transform="translate(-0.00018)"/></g><g id="Layer_2" data-name="Layer 2"><rect class="cls-4" x="53.00163" y="54.11989" width="406.78245" height="406.78245" rx="27.43915"/></g></svg>